# xmcd
#
# Track frame offsets: 
#        150
#        15290
#        29149
#        49700
#        64855
#        99067
#        112499
#        130847
#        143956
#        163369
#
# Disc length: 2388 seconds
#
# Revision: 0
# Processed by: cddbd v1.5.2PL0 Copyright (c) Steve Scherf et al.
# Submitted via: ExactAudioCopyFreeDBPlugin 1.0
#
DISCID=8d09520a
DTITLE=Caesar Vincent - The Lyrical Legacy of Caesar Vincent Disc 1
DYEAR=2018
DGENRE=Country
TTITLE0=La bas oh dans ces bois
TTITLE1=Avec sa Mary Jane et du coton du nord
TTITLE2=La fille aux oranges
TTITLE3=Mon aimable catin
TTITLE4=Les anneaux de Marianson
TTITLE5=La fille triste et desolee
TTITLE6=Il y a une fille a marier
TTITLE7=Toby Lapierre
TTITLE8=L'ecole du roi
TTITLE9=Laisez-moi-t-aller jour
EXTD=
EXTT0=
EXTT1=
EXTT2=
EXTT3=
EXTT4=
EXTT5=
EXTT6=
EXTT7=
EXTT8=
EXTT9=
PLAYORDER=
